<?xml version="1.0" encoding="utf-8"?>
<!-- Generator: Adobe Illustrator 24.1.2, SVG Export Plug-In . SVG Version: 6.00 Build 0)  -->
<svg version="1.1" xmlns="http://www.w3.org/2000/svg" xmlns:xlink="http://www.w3.org/1999/xlink" x="0px" y="0px"
	 viewBox="0 0 1280 1024" style="enable-background:new 0 0 1280 1024;" xml:space="preserve">
<style type="text/css">
	.st0{fill:#4BC6E2;}
	.st1{fill:#FF2556;}
	.st2{fill:#1A9EC6;}
	.st3{fill:#1B6075;}
	.st4{fill:#060049;}
	.st5{fill:#096100;}
	.st6{fill:#7C0057;}
	.st7{fill:#FFFFFF;}
	.st8{fill:#2588A7;}
	.st9{fill:#9FA0A2;}
	.st10{fill:#929495;}
	.st11{fill:#9FA1A2;}
	.st12{fill:#7A3300;stroke:#000000;stroke-width:0.25;stroke-miterlimit:10;}
	.st13{fill:#878D00;stroke:#000000;stroke-width:0.25;stroke-miterlimit:10;}
	.st14{fill:#00445C;stroke:#000000;stroke-width:0.25;stroke-miterlimit:10;}
	.st15{fill:#01587F;}
	.st16{fill:#912E3C;}
	.st17{fill:#899999;}
	.st18{fill:#BD6B20;}
	.st19{fill:#D98692;}
	.st20{fill:#D9DCD7;}
	.st21{fill:#D97725;}
	.st22{fill:#A5ABA8;}
	.st23{fill:#A43846;}
	.st24{fill:#B75E6B;}
	.st25{fill:#D36E27;}
	.st26{fill:#228BB5;}
	.st27{fill:#196B84;}
</style>
<g id="Layer_2">
	<polyline class="st0" points="201,597.63 201,314 751,314 751,597.17 201,597.63 201,602.03 201,602.03 	"/>
	<path d="M256.11,552.68l4.39,28.73h117.97H557.3h101.75c0,0,26.37-29.41,28.06-48h-94.31l-13.52,14.87l-1.69,4.06H418.7
		L256.11,552.68z"/>
	<polygon class="st1" points="260.51,581.41 263.21,596.96 385.92,596.96 615.77,597.63 651.61,597.63 659.04,581.41 627.27,581.41 
		465.69,581.41 	"/>
	<polygon class="st2" points="267.27,552.65 267.27,546.93 315.94,546.93 327.77,546.93 327.77,552.53 	"/>
	<polygon class="st3" points="359.89,546.93 359.89,552.46 518.08,552.34 577.58,552.34 579.27,548.28 519.44,546.93 	"/>
	<rect x="273.69" y="508.73" class="st4" width="42.93" height="12.85"/>
	<rect x="273.69" y="534.76" class="st5" width="42.25" height="12.17"/>
	<polygon class="st6" points="273.69,521.58 273.69,534.76 315.94,534.76 316.62,521.58 	"/>
	<polygon class="st7" points="321.01,546.93 321.01,512 329.46,512 327.77,493.86 346.03,493.86 348.39,493.86 348.39,485.07 
		334.7,485.07 332.85,475.61 352.79,475.61 352.79,471.89 385.58,471.89 404.51,471.89 404.51,475.27 419.72,475.27 419.72,484.39 
		408.56,484.73 407.89,495.55 386.93,495.89 387.61,508.73 364.62,509.41 364.62,524.62 364.62,543.89 364.62,546.93 359.89,546.93 
		359.89,552.46 327.77,552.53 327.77,546.93 	"/>
	<polygon class="st8" points="365.63,471.89 367.32,447.55 380.17,447.55 380.17,471.89 	"/>
	<polygon class="st7" points="366.48,459.72 380.17,459.72 380.17,469.18 365.63,469.18 	"/>
	<polygon class="st9" points="346.03,493.86 346.03,552.46 327.77,552.53 327.77,546.93 321.01,545.58 321.01,512 329.46,512 
		327.77,493.86 	"/>
	<polygon class="st10" points="357.18,484.39 357.18,493.86 348.39,493.86 348.39,485.07 	"/>
	<polygon class="st9" points="342.31,475.61 342.31,484.39 334.7,485.07 332.85,475.61 	"/>
	<polygon class="st11" points="352.79,475.61 365.63,475.61 365.63,480.34 368,480.34 368,471.89 352.79,471.89 	"/>
	<rect x="370.92" y="472.99" width="2.66" height="3.13"/>
	<rect x="375.1" y="472.99" width="3.3" height="3.13"/>
	<rect x="379.15" y="472.99" width="2.92" height="3.55"/>
	<rect x="383.21" y="472.99" width="2.79" height="3.55"/>
	<rect x="387.39" y="472.99" width="2.79" height="3.55"/>
	<rect x="391.58" y="472.99" width="3.17" height="3.55"/>
	<rect x="395.63" y="472.99" width="2.79" height="3.13"/>
	<rect x="399.44" y="472.99" width="3.3" height="3.55"/>
	<rect x="370.37" y="477.68" width="3.21" height="1.77"/>
	<polygon points="375.1,477.3 375.1,479.45 378.39,479.45 378.39,477.68 	"/>
	<rect x="379.15" y="477.68" width="2.92" height="1.77"/>
	<rect x="383.21" y="477.68" width="2.79" height="1.77"/>
	<rect x="387.39" y="477.68" width="2.79" height="1.77"/>
	<rect x="391.58" y="477.68" width="3.17" height="1.77"/>
	<rect x="395.63" y="477.68" width="2.79" height="1.77"/>
	<rect x="399.44" y="477.68" width="3.3" height="1.77"/>
	<rect x="372.25" y="487.67" width="1.65" height="2.92"/>
	<rect x="375.1" y="487.82" width="1.14" height="2.92"/>
	<rect x="365.08" y="487.82" width="1.65" height="2.92"/>
	<rect x="362.8" y="487.82" width="1.14" height="2.92"/>
	<rect x="365.15" y="498.52" width="1.65" height="2.92"/>
	<rect x="362.8" y="498.67" width="1.14" height="2.92"/>
	<rect x="372.31" y="498.67" width="1.65" height="2.92"/>
	<rect x="375.1" y="498.67" width="1.14" height="2.92"/>
	<rect x="384.42" y="487.74" width="1.65" height="2.92"/>
	<rect x="382.07" y="487.89" width="1.14" height="2.92"/>
	<rect x="391.58" y="487.89" width="1.65" height="2.92"/>
	<rect x="394.37" y="487.89" width="1.14" height="2.92"/>
	<rect x="403.87" y="487.89" width="1.65" height="2.92"/>
	<rect x="401.59" y="487.89" width="1.14" height="2.92"/>
	<rect x="354.56" y="498.59" width="1.65" height="2.92"/>
	<rect x="352.28" y="498.59" width="1.14" height="2.92"/>
	<rect x="352.03" y="530.03" width="1.65" height="2.92"/>
	<rect x="355.39" y="514.31" width="1.14" height="2.92"/>
	<rect x="352.13" y="544.61" width="1.65" height="2.92"/>
	<rect x="352.6" y="514.31" width="1.14" height="2.92"/>
	<rect x="382.64" y="498.59" width="1.14" height="2.92"/>
	<path class="st7" d="M482.59,393.22c0,0-7.1-32.55,18.76-23.42c0,0,36,12.36,22.82,23.42c0,0,4.56-34.57,22.56-19.36
		c0,0,31.86-0.82,17.83,19.36c0,0,3.21,23.23-32.28,17.14c0,0-23.32,11.15-30.93-13.18l-12.51-3.96"/>
	<path class="st7" d="M691.49,393.22c0,0-42.59-26.46,0-29.5c0,0,46.65-26.37,31.44,6.08c0,0,38.55,2.22,3.05,23.42
		c0,0,18.4,6.02-19.2,19.7C706.78,412.92,679.39,428.6,691.49,393.22z"/>
</g>
<g id="Layer_3">
	<polygon class="st12" points="387.39,495.88 387.61,508.73 430.54,508.73 430.54,495.88 	"/>
	<polygon class="st13" points="364.62,509.41 364.62,521.92 418.7,521.92 418.7,508.73 383.21,508.73 	"/>
	<rect x="364.62" y="521.92" class="st14" width="54.08" height="12.68"/>
	<rect x="364.62" y="534.59" class="st1" width="54.08" height="12.34"/>
	<polygon class="st15" points="418.7,508.73 471.61,508.73 471.61,521.92 427.49,521.92 418.7,521.92 	"/>
	<rect x="418.7" y="521.92" class="st16" width="52.9" height="12.68"/>
	<polygon class="st17" points="418.7,534.59 418.7,546.93 470.93,546.93 471.61,534.59 	"/>
	<rect x="430.54" y="495.88" class="st1" width="9.13" height="12.85"/>
	<polygon class="st14" points="439.66,495.88 482.59,495.88 482.59,508.73 471.61,508.73 439.66,508.73 	"/>
	<polygon class="st18" points="471.61,508.73 471.61,521.92 495.1,521.92 495.1,508.73 478.54,508.73 	"/>
	<rect x="482.59" y="495.88" class="st19" width="12.51" height="12.85"/>
	<rect x="495.1" y="495.88" class="st20" width="12.51" height="12.85"/>
	<rect x="507.61" y="495.88" class="st21" width="12.51" height="12.85"/>
	<rect x="471.61" y="521.92" class="st22" width="23.49" height="12.68"/>
	<rect x="471.61" y="534.59" class="st23" width="23.49" height="12.34"/>
	<polygon class="st24" points="495.1,508.73 495.1,521.07 540.56,521.07 540.56,508.73 520.11,508.73 	"/>
	<rect x="495.1" y="521.07" class="st25" width="45.46" height="13.52"/>
	<rect x="495.1" y="534.59" class="st14" width="45.46" height="12.34"/>
	<rect x="540.56" y="508.73" class="st25" width="12.34" height="12.34"/>
	<rect x="540.56" y="521.07" class="st22" width="12.34" height="13.52"/>
	<rect x="540.56" y="534.59" class="st1" width="12.34" height="12.34"/>
	<rect x="552.9" y="508.73" class="st14" width="11.66" height="12.34"/>
	<rect x="552.9" y="521.07" class="st1" width="11.66" height="13.52"/>
	<rect x="552.9" y="534.59" class="st17" width="11.66" height="12.34"/>
	<rect x="564.56" y="508.73" class="st25" width="11.32" height="12.34"/>
	<rect x="564.56" y="534.59" class="st1" width="11.32" height="12.34"/>
	<rect x="564.56" y="521.07" class="st17" width="11.32" height="13.52"/>
	<rect x="575.89" y="508.73" class="st15" width="12.17" height="12.34"/>
	<polygon class="st17" points="575.89,534.59 588.06,534.59 588.06,537.8 580.9,546.49 579.27,546.93 575.89,546.93 	"/>
	<rect x="575.89" y="521.07" class="st23" width="12.17" height="13.52"/>
	<rect x="588.06" y="508.73" class="st16" width="12" height="12.34"/>
	<polygon class="st25" points="588.06,521.07 600.06,521.07 600.06,532.56 594.06,532.56 590.93,534.59 588.06,533.41 	"/>
</g>
<g id="Layer_4">
	<polygon class="st26" points="201,597.63 280.32,597.63 751,597.63 751,700.39 201,700.39 	"/>
	<polygon class="st27" points="278.42,617.92 291.27,617.92 296.34,597.63 278.76,597.63 	"/>
	<path class="st27" d="M308.85,597.63c0,0-1.01,17.92,15.89,20.28h202.82h128.79c0,0,10.82-15.55-4.73-20.28l-191.83-0.46
		L308.85,597.63z"/>
	<path class="st7" d="M278.42,410.37c0,0-7.44-37.52,16.73-32.45l13.68,8.11l12.18-16.23c0,0,34.82,9.13,12.51,26.37
		c0,0-24.34,19.27-30.42,5.07C303.1,401.24,291.27,428.62,278.42,410.37z"/>
</g>
<g id="Layer_5">
</g>
</svg>
